<?xml version="1.0" encoding="UTF-8" standalone="no"?>
<svg
   viewBox="0 0 587.888 598.50922"
   version="1.1"
   id="svg4"
   sodipodi:docname="logo.svg"
   inkscape:version="1.3.2 (091e20ef0f, 2023-11-25)"
   width="587.888"
   height="598.50922"
   xmlns:inkscape="http://www.inkscape.org/namespaces/inkscape"
   xmlns:sodipodi="http://sodipodi.sourceforge.net/DTD/sodipodi-0.dtd"
   xmlns:xlink="http://www.w3.org/1999/xlink"
   xmlns="http://www.w3.org/2000/svg"
   xmlns:svg="http://www.w3.org/2000/svg">
  <defs
     id="defs4">
    <linearGradient
       id="linearGradient6"
       inkscape:collect="always">
      <stop
         style="stop-color:#4d62b7;stop-opacity:1;"
         offset="0"
         id="stop6" />
      <stop
         style="stop-color:#000000;stop-opacity:0;"
         offset="1"
         id="stop7" />
    </linearGradient>
    <linearGradient
       id="linearGradient4"
       inkscape:collect="always">
      <stop
         style="stop-color:#0f90ff;stop-opacity:1;"
         offset="0"
         id="stop4" />
      <stop
         style="stop-color:#296e6e;stop-opacity:0;"
         offset="1"
         id="stop5" />
    </linearGradient>
    <linearGradient
       inkscape:collect="always"
       xlink:href="#linearGradient4"
       id="linearGradient5"
       x1="424.8974"
       y1="424.74167"
       x2="221.85414"
       y2="67.354759"
       gradientUnits="userSpaceOnUse" />
    <linearGradient
       inkscape:collect="always"
       xlink:href="#linearGradient6"
       id="linearGradient7"
       x1="445.04822"
       y1="210.89246"
       x2="5.6563659"
       y2="-43.458591"
       gradientUnits="userSpaceOnUse" />
  </defs>
  <sodipodi:namedview
     id="namedview4"
     pagecolor="#ffffff"
     bordercolor="#000000"
     borderopacity="0.25"
     inkscape:showpageshadow="2"
     inkscape:pageopacity="0.0"
     inkscape:pagecheckerboard="0"
     inkscape:deskcolor="#d1d1d1"
     inkscape:zoom="1.5800781"
     inkscape:cx="298.40297"
     inkscape:cy="225.30532"
     inkscape:window-width="2560"
     inkscape:window-height="1377"
     inkscape:window-x="0"
     inkscape:window-y="0"
     inkscape:window-maximized="0"
     inkscape:current-layer="Cloud_key_access_security" />
  <g
     id="Cloud_key_access_security"
     transform="translate(42.546341,32.294159)">
    <path
       id="path1"
       style="fill:url(#linearGradient7);fill-opacity:1;stroke-width:19.9;stroke-dasharray:none"
       sodipodi:type="inkscape:offset"
       inkscape:radius="11.861644"
       inkscape:original="M 230.03125 23.091797 A 108.2888 108.2888 0 0 0 145.45117 84.898438 A 28.8433 28.8433 0 0 1 119.34766 101.51172 L 119.00977 101.51172 A 98.4029 98.4029 0 0 0 20.609375 200.66016 C 21.008875 254.50876 65.669365 298.31836 120.16406 298.31836 L 153.45508 298.31836 A 6.5 6.5 0 0 0 153.45508 285.31836 L 120.16406 285.31836 C 72.784065 285.31836 33.956075 247.2964 33.609375 200.5625 A 85.4025 85.4025 0 0 1 119.00977 114.51172 L 119.36523 114.51172 A 41.8811 41.8811 0 0 0 157.24023 90.380859 A 95.2877 95.2877 0 0 1 330.08398 90.380859 A 41.8707 41.8707 0 0 0 367.94141 114.51172 L 368.31445 114.51172 A 85.4023 85.4023 0 0 1 453.71484 200.56445 A 6.5009 6.5009 0 0 0 460.16602 207.11133 L 460.21484 207.11133 A 6.5 6.5 0 0 0 466.71484 200.66016 A 98.4027 98.4027 0 0 0 368.31445 101.51172 L 368.03906 101.51172 A 28.8406 28.8406 0 0 1 341.87305 84.898438 A 108.2888 108.2888 0 0 0 230.03125 23.091797 z "
       d="m 247.44922,10.455078 c -6.31329,-0.211452 -12.64372,0.07373 -18.91211,0.869141 -40.10583,5.089123 -76.78513,31.885905 -93.82813,68.544922 -1.54537,3.300766 0.82562,-0.95211 -1.16992,2.097656 -1.99554,3.049766 0.95267,-0.827619 -1.45312,1.910156 -2.40579,2.737775 1.05895,-0.683531 -1.70899,1.6875 -2.76793,2.371032 1.14504,-0.527183 -1.92968,1.429688 -3.07472,1.95687 1.20673,-0.360997 -2.11329,1.142578 -3.32001,1.503575 1.24697,-0.186226 -2.25195,0.833984 -3.49892,1.02021 1.26214,-0.0086 -2.3457,0.507813 -3.60785,0.516441 1.24813,0.169529 -2.39649,0.171875 h -0.33007 C 90.003309,89.650297 61.178943,101.65401 40.746094,122.24219 20.313244,142.83037 8.5282823,171.74438 8.7480469,200.75 9.1969217,261.10784 59.31285,310.17969 120.16406,310.17969 h 33.29102 c 9.61412,0 18.36133,-8.74721 18.36133,-18.36133 0,-9.61413 -8.74721,-18.36133 -18.36133,-18.36133 h -33.29102 c -41.034053,0 -74.395039,-32.77031 -74.693357,-72.98242 a 11.86283,11.86283 0 0 0 0,-0.002 c -0.05472,-7.20801 -0.352728,-0.0677 0.302734,-7.2461 0.655463,-7.17835 -0.345596,-0.10079 1.013672,-7.17969 1.359268,-7.07889 -0.331106,-0.13627 1.71875,-7.04687 2.049857,-6.9106 -0.318168,-0.16668 2.402344,-6.8418 2.720512,-6.67511 -0.300261,-0.19754 3.064453,-6.57226 3.364714,-6.37472 -0.278932,-0.22595 3.697266,-6.23828 3.976198,-6.01234 -0.25605,-0.25226 4.292969,-5.84375 4.549018,-5.59149 -0.229949,-0.27631 4.847656,-5.39258 5.077605,-5.11628 -0.199396,-0.29932 5.357422,-4.89063 5.556817,-4.59131 -0.17145,-0.31619 5.810547,-4.33789 5.981996,-4.0217 -0.138071,-0.33116 6.210937,-3.74414 6.349008,-3.41298 -0.105454,-0.3422 6.548828,-3.11328 6.654283,-2.77108 -0.07063,-0.35285 6.824219,-2.45508 6.89485,-2.10222 -0.03713,-0.35659 7.03125,-1.76953 7.06838,-1.41293 6.6e-4,-0.36041 7.17383,-1.07031 7.17317,-0.7099 0.034,-0.35745 7.24219,-0.35742 h 0.35546 a 11.86283,11.86283 0 0 0 0.0156,0 c 20.27414,-0.0284 40.01085,-12.60164 48.60351,-30.964847 a 11.86283,11.86283 0 0 0 0.0137,-0.03125 c 2.93659,-6.322937 1.93249,-4.509817 5.73437,-10.353516 3.80188,-5.843698 2.55194,-4.192628 7.14258,-9.439453 4.59064,-5.246824 3.11927,-3.7877 8.40625,-8.332031 5.28698,-4.544331 3.62506,-3.310188 9.50195,-7.060547 5.8769,-3.750359 4.05579,-2.761687 10.4043,-5.642578 6.34851,-2.880891 4.40728,-2.161805 11.09961,-4.115234 6.69232,-1.95343 4.66694,-1.515308 11.56836,-2.501953 6.90142,-0.986646 4.83505,-0.839844 11.80664,-0.839844 6.97159,0 4.90522,-0.146802 11.80664,0.839844 6.90142,0.986645 4.87603,0.548523 11.56836,2.501953 6.69232,1.953429 4.7511,1.234343 11.09961,4.115234 6.34851,2.880891 4.5274,1.892219 10.4043,5.642578 5.87689,3.750359 4.21497,2.516216 9.50195,7.060547 5.28698,4.544331 3.81561,3.085207 8.40625,8.332031 4.59063,5.246825 3.3407,3.595755 7.14258,9.439453 3.80188,5.843699 2.79778,4.030579 5.73437,10.353516 a 11.86283,11.86283 0 0 0 0.0137,0.0293 c 8.58731,18.35934 28.31369,30.93313 48.58203,30.9668 a 11.86283,11.86283 0 0 0 0.0195,0 h 0.37304 c 7.20815,-5e-5 0.071,-0.35247 7.24414,0.35742 7.17311,0.70989 0.10356,-0.34262 7.17188,1.07031 7.06831,1.41293 0.13842,-0.33269 7.0332,1.76953 6.89479,2.10223 0.16805,-0.316 6.82227,2.45508 6.65421,2.77108 0.20185,-0.29971 6.55078,3.11328 6.34893,3.41299 0.22707,-0.27561 6.20898,3.7461 5.98192,4.02171 0.25578,-0.25344 5.8125,4.33789 5.55673,4.59132 0.27797,-0.22762 5.35547,4.88867 5.0775,5.11629 0.29875,-0.19893 4.84766,5.39258 4.5489,5.5915 0.31885,-0.1686 4.29492,5.84375 3.97607,6.01234 0.33269,-0.13449 3.69727,6.24023 3.36458,6.37472 0.34408,-0.10284 3.06445,6.57227 2.72037,6.6751 0.35264,-0.0688 2.40234,6.84179 2.0497,6.91059 0.3577,-0.032 1.7168,7.04688 1.3591,7.07886 0.35838,0.001 1.01367,7.17969 0.65529,7.1783 0.35763,0.0382 0.30274,7.24609 a 11.86283,11.86283 0 0 0 0,0.006 c -0.0683,9.61116 8.61152,18.41892 18.22265,18.49219 a 11.86283,11.86283 0 0 0 0.0899,0 h 0.0488 c 9.56832,2.7e-4 18.28945,-8.65461 18.36133,-18.22266 0.21983,-29.00565 -11.56518,-57.91962 -31.99805,-78.50781 -20.43286,-20.5882 -49.25719,-32.591951 -78.26367,-32.591799 h -0.27539 a 11.86283,11.86283 0 0 0 -0.0195,0 c -3.64242,0.0058 1.20823,0.343118 -2.39844,-0.166016 -3.60666,-0.509134 1.14498,0.507949 -2.35351,-0.505859 -3.49849,-1.013809 1.06225,0.668048 -2.25781,-0.830079 -3.32007,-1.498126 0.95779,0.809785 -2.11719,-1.142578 -3.07498,-1.952362 0.8326,0.935757 -1.93555,-1.43164 -2.76815,-2.367397 0.69285,1.045442 -1.71289,-1.689453 -2.40574,-2.734896 0.53799,1.133416 -1.45703,-1.914063 -1.99502,-3.047478 0.37237,1.197308 -1.17188,-2.101562 C 341.96541,56.960721 323.8886,37.576667 301.77734,25.357422 285.18625,16.188761 266.38908,11.089434 247.44922,10.455078 Z" />
    <path
       d="m 350.9741,291.6378 a 16.54,16.54 0 1 0 -16.54,16.5395 16.5588,16.5588 0 0 0 16.54,-16.5395 z"
       id="path3"
       style="fill:#668000" />
    <path
       id="path4"
       style="fill:url(#linearGradient5);fill-opacity:1"
       sodipodi:type="inkscape:offset"
       inkscape:radius="2.5842283"
       inkscape:original="M 330.21289 171.24805 A 26.9819 26.9819 0 0 0 318.05469 178.33398 C 282.01369 214.68598 236.12016 227.35212 211.97266 231.66602 A 27.1815 27.1815 0 0 0 189.65039 259.63086 C 193.19429 334.34816 214.25982 395.60151 252.26172 441.69141 C 282.92482 478.88041 316.12997 495.12792 328.98438 500.38672 A 21.71 21.71 0 0 0 345.51758 500.38672 C 358.37108 495.12792 391.57663 478.88041 422.24023 441.69141 C 460.24223 395.60141 481.30661 334.34816 484.84961 259.63086 A 27.1774 27.1774 0 0 0 462.5293 231.66602 C 438.3808 227.35252 392.49027 214.68698 356.44727 178.33398 A 26.9819 26.9819 0 0 0 330.21289 171.24805 z M 330.75 184.92188 L 330.75 217.62109 C 330.5044 217.79109 330.25704 217.95824 330.02344 218.15234 C 298.11864 244.64824 262.77104 257.95912 236.83984 264.60352 A 11.31 11.31 0 0 0 228.43164 276.65625 C 233.88864 334.51925 251.60056 381.94474 281.19336 417.83594 A 175.1881 175.1881 0 0 0 327.32227 457.7207 A 19.6215 19.6215 0 0 0 330.75 459.30273 L 330.75 487.00586 C 317.1264 480.96926 288.82222 465.60007 262.29102 433.42188 C 226.11422 389.54537 206.04197 330.86722 202.63477 259.01562 A 14.1461 14.1461 0 0 1 214.25977 244.46289 C 239.91977 239.87889 288.72366 226.38228 327.28516 187.48828 L 327.28516 187.48633 A 14.1952 14.1952 0 0 1 330.75 184.92188 z M 343.75 184.92188 A 14.1928 14.1928 0 0 1 347.21484 187.48633 C 385.77734 226.38083 434.58209 239.87889 460.24219 244.46289 A 14.1439 14.1439 0 0 1 471.86523 259.01367 L 471.86328 259.01367 C 468.45708 330.86567 448.38578 389.54537 412.20898 433.42188 C 385.67678 465.60077 357.3731 480.96946 343.75 487.00586 L 343.75 459.30273 A 19.6265 19.6265 0 0 0 347.17969 457.7207 A 175.206 175.206 0 0 0 393.30664 417.83594 C 422.89744 381.94734 440.60791 334.51675 446.06641 276.65625 A 11.31 11.31 0 0 0 437.66016 264.60352 C 411.72956 257.95952 376.38136 244.64754 344.47656 218.15234 C 344.24516 217.96024 343.99886 217.794 343.75586 217.625 L 343.75 184.92188 z M 327.93359 320.44727 A 29.54 29.54 0 1 1 340.93359 320.44727 L 340.93359 340.58008 L 363.10742 340.58008 A 6.5 6.5 0 0 1 363.10742 353.58008 L 340.93359 353.58008 L 340.93359 366.99805 L 363.10742 366.99805 A 6.5 6.5 0 0 1 363.10742 379.99805 L 340.93359 379.99805 L 340.93359 393.74219 A 6.5 6.5 0 0 1 327.93359 393.74219 L 327.93359 320.44727 z "
       d="m 337.23828,167.78125 c -2.59464,-0.0226 -5.1888,0.29429 -7.69922,0.97266 -5.0202,1.35625 -9.66772,4.06419 -13.32226,7.76367 l 0.002,-0.004 c -35.48002,35.78618 -80.85775,48.34785 -104.70117,52.60742 a 2.5844867,2.5844867 0 0 0 -0.004,0.002 c -7.01455,1.26714 -13.5258,5.15173 -17.97265,10.72265 -4.44686,5.57092 -6.79162,12.77944 -6.47266,19.90039 a 2.5844867,2.5844867 0 0 0 0,0.008 c 3.56369,75.13455 24.78062,136.98675 63.19922,183.58203 31.00692,37.606 64.59175,54.0629 77.73242,59.43945 5.85014,2.40906 12.65181,2.40906 18.50195,0 13.13965,-5.37651 46.725,-21.83346 77.73242,-59.43945 38.41871,-46.5954 59.63449,-108.44749 63.19727,-183.58203 a 2.5844867,2.5844867 0 0 0 0,-0.008 c 0.31999,-7.12093 -2.02407,-14.32925 -6.4707,-19.90039 -4.44664,-5.57113 -10.958,-9.45592 -17.97266,-10.72265 a 2.5844867,2.5844867 0 0 0 -0.004,-0.002 C 439.14002,224.86192 393.76529,212.30094 358.2832,176.51367 l 0.002,0.004 c -5.48248,-5.55014 -13.26295,-8.66854 -21.04688,-8.73633 z m -9.07226,22.4375 v 26.10547 c -31.45701,26.05546 -66.34817,39.21108 -91.9668,45.77539 a 2.5844867,2.5844867 0 0 0 -0.01,0.002 c -3.16966,0.82458 -6.02259,2.81193 -7.89648,5.49805 -1.87165,2.68291 -2.75093,6.04303 -2.4336,9.29883 1.3e-4,0.001 -1.2e-4,0.003 0,0.004 5.49347,58.24327 23.35555,106.20405 53.33008,142.56446 13.08357,16.08265 29.00493,29.84906 46.8086,40.47265 a 2.5844867,2.5844867 0 0 0 0.0215,0.0117 c 0.68141,0.39811 1.42659,0.66689 2.14649,0.99024 v 21.875 C 313.89867,476.04937 288.59495,461.26131 264.28516,431.77734 228.53067,388.41303 208.6055,330.33511 205.2168,258.90039 v -0.006 c -3e-5,-6.6e-4 3e-5,-0.001 0,-0.002 -0.10376,-2.28679 -0.21942,0.2401 0.0937,-2.06446 0.31435,-2.31325 -0.25975,0.19838 0.46289,-2.02148 0.72264,-2.21985 -0.29127,0.1468 0.8164,-1.9082 1.10767,-2.055 -0.31446,0.0935 1.14258,-1.73047 1.45705,-1.824 -0.32397,0.0362 1.43555,-1.49805 1.75952,-1.53429 -0.32568,-0.0216 1.67969,-1.2168 2.00536,-1.19519 -0.31752,-0.0808 1.86914,-0.89843 2.18665,-0.81762 -0.29756,-0.1351 2,-0.54883 l -0.002,0.002 c 25.7579,-4.60149 74.48605,-18.05943 113.45118,-56.78906 z m 18.16796,0 c 38.96594,38.72937 87.69527,52.1876 113.45313,56.78906 2.2727,0.40832 -0.18561,-0.26892 1.99609,0.54688 2.18623,0.81749 -0.13386,-0.29655 1.8711,0.89843 2.00496,1.19499 -0.0814,-0.31722 1.67773,1.2168 1.75916,1.53402 -0.0212,-0.32562 1.43555,1.49805 1.45673,1.82367 0.0352,-0.32416 1.14258,1.73047 1.10741,2.05462 0.094,-0.31319 0.8164,1.90625 0.72246,2.21944 0.14866,-0.29133 0.46289,2.02148 0.31276,2.30194 0.19746,-0.21258 0.0937,2.0625 a 2.5844867,2.5844867 0 0 0 -0.002,0.002 c -3.38661,71.43877 -23.31062,129.52084 -59.06641,172.88672 -24.31061,29.4845 -49.61391,44.27219 -63.88086,51.03907 v -21.87305 c 0.72069,-0.32346 1.4663,-0.59187 2.14844,-0.99024 a 2.5844867,2.5844867 0 0 0 0.0215,-0.0137 c 17.80272,-10.62407 33.7234,-24.39046 46.80664,-40.47265 29.97267,-36.35797 47.83316,-84.32378 53.32812,-142.56446 0.31853,-3.25669 -0.55971,-6.61879 -2.43164,-9.30273 -1.87342,-2.68608 -4.72725,-4.67104 -7.89648,-5.49609 a 2.5844867,2.5844867 0 0 0 -0.01,-0.004 C 412.68433,255.5361 377.79544,242.3799 346.33984,216.32812 Z m -11.90039,74.45703 c 0.12459,0 4.77006,0.42466 4.89258,0.44727 0.12252,0.0226 4.61213,1.28365 4.72852,1.32812 0.11638,0.0445 4.30377,2.09921 4.41015,2.16406 0.10639,0.0648 3.85052,2.84466 3.94336,2.92774 0.0928,0.0831 3.27143,3.49715 3.34766,3.5957 0.0762,0.0985 2.58159,4.03183 2.63867,4.14258 0.0571,0.11075 1.80772,4.43542 1.84375,4.55469 0.036,0.11926 0.97254,4.68672 0.98633,4.81054 0.0138,0.12383 0.10461,4.78784 0.0957,4.91211 -0.009,0.12427 -0.76556,4.72707 -0.79687,4.84766 -0.0313,0.12059 -1.60944,4.50819 -1.66211,4.62109 -0.0527,0.11291 -2.40037,4.14267 -2.47266,4.24414 -0.0723,0.10148 -3.11362,3.63794 -3.20312,3.72461 -0.0895,0.0867 -3.72243,3.01305 -3.82618,3.08203 -0.10374,0.069 -4.20576,2.28693 -4.32031,2.33594 -0.11454,0.049 -4.55229,1.48431 -4.67383,1.51172 a 2.5844867,2.5844867 0 0 0 -2.01562,2.52149 v 20.13281 a 2.5844867,2.5844867 0 0 0 2.58398,2.58398 h 22.17383 c 2.05029,0 3.91602,1.86573 3.91602,3.91602 0,2.05029 -1.86573,3.91601 -3.91602,3.91601 h -22.17383 a 2.5844867,2.5844867 0 0 0 -2.58398,2.58399 v 13.41797 a 2.5844867,2.5844867 0 0 0 2.58398,2.58398 h 22.17383 c 2.05029,0 3.91602,1.86573 3.91602,3.91602 0,2.05029 -1.86573,3.91601 -3.91602,3.91601 h -22.17383 a 2.5844867,2.5844867 0 0 0 -2.58398,2.58399 v 13.74414 c 0,2.05029 -1.86573,3.91601 -3.91602,3.91601 -2.05029,0 -3.91601,-1.86572 -3.91601,-3.91601 v -73.29492 a 2.5844867,2.5844867 0 0 0 -2.01563,-2.52149 c -0.12153,-0.0274 -4.55928,-1.4627 -4.67383,-1.51172 -0.11454,-0.049 -4.21656,-2.26695 -4.32031,-2.33594 -0.10374,-0.069 -3.73667,-2.99536 -3.82617,-3.08203 -0.0895,-0.0867 -3.13083,-3.62313 -3.20312,-3.72461 -0.0723,-0.10147 -2.41999,-4.13123 -2.47266,-4.24414 -0.0527,-0.1129 -1.6308,-4.5005 -1.66211,-4.62109 -0.0313,-0.12059 -0.78797,-4.72339 -0.79688,-4.84766 -0.009,-0.12427 0.0819,-4.78828 0.0957,-4.91211 0.0138,-0.12382 0.95029,-4.69128 0.98633,-4.81054 0.036,-0.11927 1.78667,-4.44394 1.84375,-4.55469 0.0571,-0.11075 2.56244,-4.04403 2.63867,-4.14258 0.0762,-0.0985 3.25481,-3.51262 3.34765,-3.5957 0.0928,-0.0831 3.83698,-2.86289 3.94336,-2.92774 0.10639,-0.0648 4.29378,-2.11959 4.41016,-2.16406 0.11638,-0.0445 4.60599,-1.30551 4.72852,-1.32812 0.12252,-0.0226 4.76798,-0.44727 4.89257,-0.44727 z" />
  </g>
</svg>
